<svg xmlns="http://www.w3.org/2000/svg" width="95.053" height="14" viewBox="0 0 95.053 14"><g transform="translate(0 0)"><path d="M157.11,1666.653h4.746a10.5,10.5,0,0,0,1.567-.084,2.631,2.631,0,0,0,.929-.328,2.365,2.365,0,0,0,0-3.781,2.621,2.621,0,0,0-.921-.328,10.592,10.592,0,0,0-1.575-.083H157.11Zm0,1.219v4.775a.669.669,0,0,0,.129.44.938.938,0,0,0,.464.243v.3H155.06v-.3a.949.949,0,0,0,.464-.243.663.663,0,0,0,.131-.44V1661.8a.647.647,0,0,0-.131-.432.961.961,0,0,0-.464-.243v-.3h6.659a12.165,12.165,0,0,1,2.177.151,3.916,3.916,0,0,1,1.392.544,2.97,2.97,0,0,1,1.03,1.079,3.46,3.46,0,0,1,.435,1.724,3.354,3.354,0,0,1-.8,2.252,3.23,3.23,0,0,1-1.556,1.012,9.81,9.81,0,0,1-2.68.282Z" transform="translate(-155.06 -1660.225)" fill="#262b20"/><path d="M346,1661.564v4.751h8.113a.914.914,0,0,0,.547-.122.8.8,0,0,0,.251-.479h.3v2.417h-.288a.833.833,0,0,0-.26-.477.919.919,0,0,0-.547-.121H343.949v-.3a.8.8,0,0,0,.473-.252.943.943,0,0,0,.121-.554v-10.579a.945.945,0,0,0-.121-.554.858.858,0,0,0-.473-.251v-.3h10.043a.919.919,0,0,0,.547-.122.887.887,0,0,0,.25-.488h.3v2.418h-.3a.79.79,0,0,0-.25-.469.939.939,0,0,0-.547-.122H346v4.386h5.238a.923.923,0,0,0,.547-.122.8.8,0,0,0,.25-.478h.3v2.418h-.3a.794.794,0,0,0-.25-.479.914.914,0,0,0-.547-.122Z" transform="translate(-326.724 -1654.133)" fill="#262b20"/><path d="M534.365,1672.412h8.085a.917.917,0,0,0,.548-.122.807.807,0,0,0,.25-.478h.3v2.419h-.3a.806.806,0,0,0-.25-.478.914.914,0,0,0-.548-.123H532.315v-.3a.81.81,0,0,0,.474-.255.939.939,0,0,0,.12-.554v-10.582a.947.947,0,0,0-.12-.555.865.865,0,0,0-.474-.252v-.3h2.644v.3a.856.856,0,0,0-.471.252.934.934,0,0,0-.122.555Z" transform="translate(-497.914 -1660.231)" fill="#262b20"/><path d="M688.119,1655.977v10.471a1,1,0,0,0,.12.554.865.865,0,0,0,.474.253v.3h-2.644v-.3a.865.865,0,0,0,.474-.253.949.949,0,0,0,.122-.554v-10.471h-4.285a.971.971,0,0,0-.556.122.786.786,0,0,0-.242.469h-.3v-2.418h.3a.84.84,0,0,0,.242.486.971.971,0,0,0,.556.122H692.4a.921.921,0,0,0,.546-.122.8.8,0,0,0,.252-.486h.3v2.418h-.3a.752.752,0,0,0-.252-.469.929.929,0,0,0-.546-.122Z" transform="translate(-633.291 -1654.15)" fill="#262b20"/><path d="M873.173,1661.564v4.751h8.114a.9.9,0,0,0,.546-.122.8.8,0,0,0,.253-.479h.3v2.417h-.289a.826.826,0,0,0-.261-.477.91.91,0,0,0-.546-.121H871.125v-.3a.8.8,0,0,0,.471-.252.95.95,0,0,0,.122-.554v-10.579a.952.952,0,0,0-.122-.554.849.849,0,0,0-.471-.251v-.3h10.043a.915.915,0,0,0,.546-.122.873.873,0,0,0,.252-.488h.3v2.418h-.3a.792.792,0,0,0-.252-.469.936.936,0,0,0-.546-.122h-7.995v4.386h5.24a.932.932,0,0,0,.549-.122.823.823,0,0,0,.248-.478h.3v2.418h-.3a.819.819,0,0,0-.248-.479.923.923,0,0,0-.549-.122Z" transform="translate(-805.828 -1654.133)" fill="#262b20"/><path d="M1061.535,1666.654h5.128a10.9,10.9,0,0,0,1.577-.083,2.862,2.862,0,0,0,.945-.328,2.33,2.33,0,0,0-.029-3.781,2.9,2.9,0,0,0-.972-.328,11.539,11.539,0,0,0-1.651-.085h-5Zm0,1.211v4.661a.981.981,0,0,0,.119.554.864.864,0,0,0,.474.252v.3h-2.644v-.3a.859.859,0,0,0,.474-.252.95.95,0,0,0,.122-.554v-10.588a.947.947,0,0,0-.122-.554.793.793,0,0,0-.474-.253v-.3h6.946a12.529,12.529,0,0,1,2.254.16,4.029,4.029,0,0,1,1.445.534,2.971,2.971,0,0,1,1.02,1.079,3.461,3.461,0,0,1,.447,1.753,3.188,3.188,0,0,1-.964,2.392,4.135,4.135,0,0,1-2.634,1.05l3.216,5.064a.922.922,0,0,0,.835.47v.3h-2.929v-.3c.3-.048.455-.137.455-.263a2.361,2.361,0,0,0-.325-.608l-2.873-4.6Z" transform="translate(-976.995 -1660.227)" fill="#262b20"/></g></svg>